<?xml version="1.0" standalone="no"?>
<!DOCTYPE svg PUBLIC "-//W3C//DTD SVG 20010904//EN"
 "http://www.w3.org/TR/2001/REC-SVG-20010904/DTD/svg10.dtd">
<svg version="1.0" xmlns="http://www.w3.org/2000/svg"
 width="357.000000pt" height="357.000000pt" viewBox="0 0 357.000000 357.000000"
 preserveAspectRatio="xMidYMid meet">
<metadata>
Created by potrace 1.14, written by Peter Selinger 2001-2017
</metadata>
<g transform="translate(0.000000,357.000000) scale(0.100000,-0.100000)"
fill="#000000" stroke="none">
<path d="M1525 3331 c-319 -89 -564 -243 -792 -495 -183 -202 -326 -497 -379
-781 -28 -150 -26 -462 4 -602 109 -505 421 -913 867 -1133 214 -105 384 -153
604 -170 621 -46 1223 274 1530 815 55 96 62 132 31 160 -21 19 -33 19 -205
-5 -160 -22 -395 -3 -561 46 -260 75 -471 200 -659 390 -199 200 -337 457
-400 744 -25 113 -31 401 -12 526 20 126 55 246 107 366 34 80 39 100 30 122
-7 20 -50 50 -63 45 -1 0 -47 -13 -102 -28z m-40 -222 c-136 -399 -105 -850
86 -1230 224 -447 612 -751 1104 -865 110 -25 138 -28 327 -28 115 -1 208 -4
208 -7 0 -22 -121 -172 -214 -264 -270 -268 -602 -415 -976 -432 -406 -18
-793 125 -1087 401 -532 501 -621 1301 -214 1916 110 165 317 357 499 461 70
40 282 132 289 125 2 -1 -8 -36 -22 -77z"/>
</g>
</svg>
